<?xml version="1.0" encoding="UTF-8" standalone="no"?>
<!-- Created with Inkscape (http://www.inkscape.org/) -->

<svg
   xmlns:dc="http://purl.org/dc/elements/1.1/"
   xmlns:cc="http://creativecommons.org/ns#"
   xmlns:rdf="http://www.w3.org/1999/02/22-rdf-syntax-ns#"
   xmlns:svg="http://www.w3.org/2000/svg"
   xmlns="http://www.w3.org/2000/svg"
   xmlns:sodipodi="http://sodipodi.sourceforge.net/DTD/sodipodi-0.dtd"
   xmlns:inkscape="http://www.inkscape.org/namespaces/inkscape"
   width="113.79302mm"
   height="21.846785mm"
   viewBox="0 0 403.20363 77.409866"
   id="svg2"
   version="1.1"
   inkscape:version="0.91 r13725"
   sodipodi:docname="logo-name.svg">
  <defs
     id="defs4">
    <clipPath
       id="clip1">
      <path
         id="path4265"
         d="m 0,0 328.82031,0 0,76.535156 -328.82031,0 z"
         inkscape:connector-curvature="0" />
    </clipPath>
  </defs>
  <sodipodi:namedview
     id="base"
     pagecolor="#ffffff"
     bordercolor="#666666"
     borderopacity="1.0"
     inkscape:pageopacity="0.0"
     inkscape:pageshadow="2"
     inkscape:zoom="1.225"
     inkscape:cx="478.20139"
     inkscape:cy="-74.93354"
     inkscape:document-units="px"
     inkscape:current-layer="layer1"
     showgrid="false"
     fit-margin-top="0"
     fit-margin-left="0"
     fit-margin-right="0"
     fit-margin-bottom="0"
     inkscape:window-width="1920"
     inkscape:window-height="1058"
     inkscape:window-x="-8"
     inkscape:window-y="-8"
     inkscape:window-maximized="1" />
  <metadata
     id="metadata7">
    <rdf:RDF>
      <cc:Work
         rdf:about="">
        <dc:format>image/svg+xml</dc:format>
        <dc:type
           rdf:resource="http://purl.org/dc/dcmitype/StillImage" />
        <dc:title></dc:title>
      </cc:Work>
    </rdf:RDF>
  </metadata>
  <g
     inkscape:label="Layer 1"
     inkscape:groupmode="layer"
     id="layer1"
     transform="translate(-14.666812,-277.75753)">
    <polygon
       style="fill:none"
       class="st0"
       points="147.7,20.7 147.7,20.7 155.7,20.7 155.7,20.7 "
       id="polygon4139"
       transform="matrix(1.874107,0,0,1.874107,90.500272,468.26227)" />
    <g
       id="g4439"
       inkscape:export-filename="C:\Users\IBME6560\Desktop\logo-dataservices\logo_name_64.png"
       inkscape:export-xdpi="74.32962"
       inkscape:export-ydpi="74.32962">
      <g
         transform="translate(0,0.54638104)"
         id="g4417">
        <path
           id="path4282"
           d="m 129.6722,305.11774 -11.17676,0 0,-8.84766 9.30176,0 0,-1.24511 -9.30176,0 0,-8.5791 11.17676,0 0,-1.2793 -12.71973,0 0,21.22558 12.71973,0 z"
           style="clip-rule:nonzero;fill:#3a3a3a;fill-opacity:1;fill-rule:nonzero;stroke:none"
           inkscape:connector-curvature="0" />
        <path
           id="path4284"
           d="m 123.12435,283.22809 c 0.083,-0.0293 0.17578,-0.0732 0.27832,-0.14648 l 4.37988,-3.23731 -1.67969,0 c -0.23926,0 -0.41992,0.0195 -0.54199,0.0684 -0.11719,0.0439 -0.24902,0.13184 -0.39063,0.25879 l -3.40332,3.09082 1.04981,0 c 0.12207,0 0.22461,-0.01 0.30762,-0.0342"
           style="clip-rule:nonzero;fill:#3a3a3a;fill-opacity:1;fill-rule:nonzero;stroke:none"
           inkscape:connector-curvature="0" />
        <path
           id="path4286"
           d="m 134.6429,296.27497 c 0.22949,-0.81543 0.56153,-1.51367 1.01074,-2.09961 0.44434,-0.58594 0.9961,-1.03516 1.65528,-1.35742 0.66406,-0.31739 1.43555,-0.47852 2.31445,-0.47852 0.89356,0 1.69433,0.18066 2.40235,0.53711 0.71288,0.36133 1.33788,0.95215 1.87987,1.77246 l 0,7.89063 c -0.62987,0.9082 -1.34765,1.62109 -2.14844,2.1289 -0.80077,0.50781 -1.69433,0.7666 -2.69042,0.7666 -1.5332,0 -2.70996,-0.52246 -3.53028,-1.56738 -0.82031,-1.04492 -1.23046,-2.68066 -1.23046,-4.89746 0,-0.98145 0.11225,-1.87988 0.33691,-2.69531 m 4.02344,10.3125 c 1.0791,0 2.05566,-0.25391 2.93456,-0.76172 0.87403,-0.5127 1.64552,-1.20606 2.30469,-2.08496 l 0,7.93457 1.42579,0 0,-20.20508 -0.78614,0 c -0.27831,0 -0.41992,0.12207 -0.42969,0.37109 l -0.13183,1.68457 c -0.54199,-0.76171 -1.1914,-1.33789 -1.94824,-1.72851 -0.75684,-0.39063 -1.65039,-0.58594 -2.68066,-0.58594 -1.04982,0 -1.97754,0.2002 -2.78809,0.60059 -0.80566,0.40039 -1.48438,0.94726 -2.04101,1.6455 -0.55665,0.69336 -0.97657,1.51368 -1.25977,2.46094 -0.28809,0.94238 -0.42969,1.95801 -0.42969,3.05176 0,2.53906 0.51269,4.44336 1.53808,5.71289 1.0254,1.26953 2.45606,1.9043 4.292,1.9043"
           style="clip-rule:nonzero;fill:#3a3a3a;fill-opacity:1;fill-rule:nonzero;stroke:none"
           inkscape:connector-curvature="0" />
        <path
           id="path4288"
           d="m 151.21517,305.11774 c 0.41015,0.49316 0.92285,0.86426 1.54296,1.12793 0.62012,0.25879 1.34766,0.39063 2.17774,0.39063 1.11328,0 2.12402,-0.26368 3.02735,-0.78125 0.9082,-0.52247 1.70897,-1.21094 2.39746,-2.07032 l 0.13671,2.2168 c 0.01,0.26367 0.15136,0.39062 0.42969,0.39062 l 0.78614,0 0,-14.92187 -1.42579,0 0,11.2207 c -0.67383,0.87891 -1.43066,1.56739 -2.27539,2.06055 -0.83985,0.49316 -1.74805,0.74219 -2.72461,0.74219 -1.31348,0 -2.29004,-0.39551 -2.93456,-1.19141 -0.63965,-0.7959 -0.96193,-1.89453 -0.96193,-3.29101 l 0,-9.54102 -1.42577,0 0,9.54102 c 0,0.86914 0.10737,1.6455 0.31738,2.33886 0.20995,0.68848 0.52245,1.2793 0.93262,1.76758"
           style="clip-rule:nonzero;fill:#3a3a3a;fill-opacity:1;fill-rule:nonzero;stroke:none"
           inkscape:connector-curvature="0" />
        <path
           id="path4290"
           d="m 166.78157,287.23688 c 0.11712,0.12208 0.2588,0.21485 0.41992,0.28809 0.16114,0.0684 0.32715,0.10253 0.50781,0.10253 0.18067,0 0.35157,-0.0342 0.5127,-0.10253 0.15625,-0.0732 0.29785,-0.16602 0.41993,-0.28809 0.11712,-0.11719 0.21484,-0.2539 0.29296,-0.41015 0.0733,-0.15625 0.11225,-0.32227 0.11225,-0.50293 0,-0.18067 -0.039,-0.35157 -0.11225,-0.51758 -0.0781,-0.16602 -0.17577,-0.30762 -0.29296,-0.42969 -0.12213,-0.11719 -0.26368,-0.21484 -0.41993,-0.2832 -0.16113,-0.0684 -0.33203,-0.10254 -0.5127,-0.10254 -0.18066,0 -0.34667,0.0342 -0.50781,0.10254 -0.16112,0.0684 -0.30274,0.16601 -0.41992,0.2832 -0.12213,0.12207 -0.21484,0.26367 -0.28808,0.42969 -0.0684,0.16601 -0.1025,0.33691 -0.1025,0.51758 0,0.18066 0.0341,0.34668 0.1025,0.50293 0.0733,0.15625 0.16601,0.29296 0.28808,0.41015"
           style="clip-rule:nonzero;fill:#3a3a3a;fill-opacity:1;fill-rule:nonzero;stroke:none"
           inkscape:connector-curvature="0" />
        <path
           id="path4292"
           d="m 166.99153,306.39215 1.42579,0 0,-14.92187 -1.42579,0 z"
           style="clip-rule:nonzero;fill:#3a3a3a;fill-opacity:1;fill-rule:nonzero;stroke:none"
           inkscape:connector-curvature="0" />
        <path
           id="path4294"
           d="m 175.12142,295.29352 c 0.62011,-0.91797 1.333,-1.63574 2.13378,-2.15332 0.80567,-0.51269 1.7041,-0.77148 2.69532,-0.77148 1.53808,0 2.71483,0.52246 3.53027,1.56738 0.81543,1.04492 1.22559,2.67578 1.22559,4.89746 0,0.98145 -0.11225,1.87988 -0.33691,2.69531 -0.22462,0.81055 -0.56153,1.51368 -1.00587,2.09961 -0.44433,0.58106 -0.9961,1.03516 -1.66016,1.35742 -0.65917,0.31739 -1.43066,0.47852 -2.30956,0.47852 -0.88868,0 -1.67969,-0.17578 -2.37794,-0.52734 -0.69335,-0.34668 -1.32812,-0.95215 -1.89452,-1.81153 z m 0,9.0918 c 0.53711,0.72754 1.17675,1.2793 1.91893,1.65039 0.74219,0.36621 1.6211,0.55176 2.64162,0.55176 1.0498,0 1.97753,-0.2002 2.77831,-0.60059 0.80566,-0.39551 1.48437,-0.94726 2.03614,-1.64062 0.54687,-0.69336 0.9668,-1.51368 1.25,-2.46094 0.28808,-0.94238 0.42968,-1.96289 0.42968,-3.05176 0,-2.53906 -0.5127,-4.44336 -1.5332,-5.71289 -1.01562,-1.26953 -2.4463,-1.9043 -4.28711,-1.9043 -1.09864,0 -2.09472,0.26368 -2.97851,0.79102 -0.8838,0.53223 -1.65528,1.24512 -2.31934,2.14844 l -0.13184,-2.30957 c -0.01,-0.14161 -0.0537,-0.23926 -0.13672,-0.29297 -0.0781,-0.0586 -0.18554,-0.083 -0.3125,-0.083 l -0.78125,0 0,20.20507 1.42579,0 z"
           style="clip-rule:nonzero;fill:#3a3a3a;fill-opacity:1;fill-rule:nonzero;stroke:none"
           inkscape:connector-curvature="0" />
        <path
           id="path4296"
           d="m 190.66829,295.30817 c 0.27344,-0.62988 0.62988,-1.17187 1.0791,-1.62109 0.43945,-0.44922 0.9668,-0.79102 1.57715,-1.03516 0.61035,-0.23926 1.29883,-0.35644 2.06543,-0.35644 0.67871,0 1.29882,0.11718 1.86035,0.35156 0.55665,0.23437 1.03516,0.57129 1.43555,1.01074 0.40038,0.43945 0.70801,0.97656 0.92773,1.61133 0.21973,0.63965 0.33203,1.35254 0.33203,2.15332 l -9.82421,0 c 0.0879,-0.77637 0.26855,-1.48438 0.54687,-2.11426 m -0.14649,9.19434 c 0.60059,0.68359 1.32324,1.19629 2.16309,1.55273 0.83984,0.35645 1.77246,0.53223 2.78809,0.53223 0.56152,0 1.11816,-0.0537 1.6748,-0.16602 0.55664,-0.10742 1.07422,-0.2539 1.55762,-0.43945 0.48828,-0.18555 0.92773,-0.41016 1.32324,-0.66895 0.39551,-0.25879 0.71289,-0.53711 0.95215,-0.83984 l -0.39062,-0.47852 c -0.0684,-0.10253 -0.1709,-0.15136 -0.29785,-0.15136 -0.1025,0 -0.26368,0.083 -0.4834,0.24902 -0.21973,0.16602 -0.51758,0.34668 -0.89357,0.55176 -0.37108,0.20508 -0.83495,0.39062 -1.38671,0.55664 -0.54687,0.16601 -1.19629,0.24902 -1.94824,0.24902 -0.83985,0 -1.60156,-0.14648 -2.28027,-0.43457 -0.67871,-0.29297 -1.25978,-0.72265 -1.73829,-1.29883 -0.4834,-0.57617 -0.84961,-1.28906 -1.11327,-2.13867 -0.25879,-0.84961 -0.39063,-1.83594 -0.39063,-2.9541 l 0,-0.2832 10.77148,0 c 0.14161,0 0.24415,-0.0439 0.30762,-0.12208 0.0635,-0.0781 0.0976,-0.22949 0.0976,-0.44922 0,-1.0498 -0.14648,-1.98242 -0.44434,-2.78808 -0.29296,-0.81055 -0.70313,-1.49414 -1.22558,-2.05078 -0.52735,-0.55176 -1.14746,-0.97657 -1.86036,-1.26465 -0.71776,-0.29297 -1.49414,-0.43457 -2.33397,-0.43457 -1.05958,0 -2.00684,0.18066 -2.8418,0.55176 -0.83497,0.37109 -1.54298,0.88378 -2.11427,1.53808 -0.57616,0.6543 -1.01562,1.43555 -1.32323,2.33887 -0.30274,0.9082 -0.4541,1.89453 -0.4541,2.96387 0,1.26953 0.16112,2.39746 0.49316,3.38378 0.32715,0.98145 0.79101,1.81641 1.3916,2.49512"
           style="clip-rule:nonzero;fill:#3a3a3a;fill-opacity:1;fill-rule:nonzero;stroke:none"
           inkscape:connector-curvature="0" />
        <path
           id="path4298"
           d="m 144.68197,335.38141 c 0,-2.19726 -0.41504,-4.27246 -1.25489,-6.22558 -0.83984,-1.94825 -1.98243,-3.64746 -3.43261,-5.09766 -1.4502,-1.45019 -3.14942,-2.59277 -5.10254,-3.43262 -1.95313,-0.83984 -4.02344,-1.25976 -6.22071,-1.25976 l -13.2666,0 0,32.03125 5.48828,0 0,-26.53809 7.77832,0 c 1.40137,0 2.74414,0.26856 4.02832,0.80078 1.2793,0.53223 2.42188,1.28907 3.42774,2.26075 0.97656,1.01074 1.7334,2.15332 2.26562,3.43261 0.53223,1.28418 0.80078,2.62207 0.80078,4.02832 0,1.43067 -0.26855,2.78321 -0.80078,4.04785 -0.53222,1.26465 -1.28906,2.40235 -2.26562,3.40821 -1.00586,0.97656 -2.14844,1.7334 -3.42774,2.26562 -1.28418,0.53223 -2.62695,0.80078 -4.02832,0.80078 l -3.43262,0 -2.24121,5.49317 5.67383,0 c 2.19727,0 4.26758,-0.41992 6.22071,-1.25977 1.95312,-0.83984 3.65234,-1.98242 5.10254,-3.43262 1.45018,-1.45019 2.59277,-3.14941 3.43261,-5.10253 0.83985,-1.95313 1.25489,-4.02344 1.25489,-6.22071"
           style="clip-rule:nonzero;fill:#3a3a3a;fill-opacity:1;fill-rule:nonzero;stroke:none"
           inkscape:connector-curvature="0" />
        <path
           id="path4300"
           d="m 157.40169,319.36579 -14.45801,32.03125 6.04004,0 2.47071,-5.49317 13.27147,0 -2.4707,-5.49316 -8.33007,0 6.49902,-14.36523 6.49414,14.36523 4.9414,10.98633 6.04004,0 -14.458,-32.03125 z"
           style="clip-rule:nonzero;fill:#3a3a3a;fill-opacity:1;fill-rule:nonzero;stroke:none"
           inkscape:connector-curvature="0" />
        <path
           id="path4302"
           d="m 196.70344,319.36579 -24.29199,0 0,5.49316 9.42383,0 0,26.53809 5.48829,0 0,-26.53809 9.37987,0 z"
           style="clip-rule:nonzero;fill:#3a3a3a;fill-opacity:1;fill-rule:nonzero;stroke:none"
           inkscape:connector-curvature="0" />
        <path
           id="path4304"
           d="m 205.76594,319.36579 -14.458,32.03125 6.03515,0 2.4707,-5.49317 13.27149,0 -2.4707,-5.49316 -8.33008,0 6.49903,-14.36523 6.49414,14.36523 2.47558,5.49316 2.46582,5.49317 6.04003,0 -14.458,-32.03125 z"
           style="clip-rule:nonzero;fill:#3a3a3a;fill-opacity:1;fill-rule:nonzero;stroke:none"
           inkscape:connector-curvature="0" />
        <path
           id="path4306"
           d="m 244.97493,335.33258 c -0.67383,-0.4541 -1.35254,-0.8496 -2.03614,-1.18652 -0.68847,-0.33691 -1.32324,-0.625 -1.89941,-0.86914 -0.58105,-0.24414 -1.08398,-0.4248 -1.50879,-0.55176 -0.42969,-0.12207 -0.71777,-0.20996 -0.86914,-0.27343 l -0.55176,-0.13672 c -0.54687,-0.15137 -1.14257,-0.32227 -1.78222,-0.50293 -0.64453,-0.18555 -1.25488,-0.42481 -1.83105,-0.73243 -0.70313,-0.36621 -1.25,-0.77636 -1.64552,-1.23535 -0.55175,-0.57617 -0.82518,-1.27929 -0.82518,-2.10449 0,-1.34277 0.66893,-2.42676 2.01171,-3.24707 0.45899,-0.24414 0.99121,-0.43945 1.60156,-0.5957 0.61035,-0.15137 1.2207,-0.22949 1.83105,-0.22949 1.40138,0 2.74415,0.30273 4.02833,0.91308 0.84961,0.42969 1.68945,1.05469 2.51465,1.87988 l 3.8916,-3.93554 c -0.24903,-0.21485 -0.52734,-0.44922 -0.84962,-0.70801 -0.32226,-0.25879 -0.708,-0.52734 -1.16698,-0.80566 -0.88379,-0.5127 -2.0752,-1.03516 -3.56934,-1.55274 -1.49414,-0.51758 -3.33984,-0.77637 -5.53711,-0.77637 -1.18653,0 -2.40234,0.16602 -3.63769,0.50293 -1.23048,0.33692 -2.35353,0.88868 -3.35938,1.66993 -1.00586,0.77636 -1.82128,1.7871 -2.44628,3.01757 -0.625,1.23536 -0.9375,2.75391 -0.9375,4.55567 0,2.71484 1.38671,5 4.16015,6.86035 1.19141,0.7959 2.3877,1.4209 3.59375,1.875 1.20605,0.45898 2.12891,0.78125 2.76855,0.96191 0.11712,0.0586 0.20996,0.0928 0.27343,0.0928 0.0928,0.0586 0.2002,0.0977 0.31739,0.1123 0.12213,0.0147 0.25879,0.0537 0.41504,0.1123 0.48829,0.15625 1.03516,0.32226 1.64551,0.50781 0.61035,0.18067 1.1914,0.42481 1.73828,0.73242 0.66895,0.30274 1.22071,0.69825 1.6504,1.18653 0.54687,0.61035 0.82031,1.29883 0.82031,2.06054 0,1.25 -0.51759,2.25586 -1.55274,3.01758 -0.49316,0.33692 -1.06445,0.60547 -1.71875,0.80567 -0.6543,0.19531 -1.38184,0.29296 -2.17285,0.29296 -0.42481,0 -0.97656,-0.0439 -1.64551,-0.13671 -0.67383,-0.0879 -1.38671,-0.28809 -2.15333,-0.59571 -1.25,-0.4834 -2.37792,-1.1914 -3.38378,-2.10449 l -3.79883,3.79883 c 1.28418,1.04004 2.91504,1.95801 4.89746,2.76855 1.98243,0.80567 4.23828,1.21094 6.77247,1.21094 1.58202,0 3.01757,-0.22461 4.30175,-0.68848 1.2793,-0.4541 2.36817,-1.10351 3.26661,-1.93847 0.90331,-0.83985 1.59667,-1.86524 2.08495,-3.06641 0.4834,-1.20605 0.73242,-2.55371 0.73242,-4.05273 0,-2.65137 -1.48437,-4.95606 -4.43847,-6.90918"
           style="clip-rule:nonzero;fill:#3f5eab;fill-opacity:1;fill-rule:nonzero;stroke:none"
           inkscape:connector-curvature="0" />
        <path
           id="path4308"
           d="m 252.15754,351.39215 21.54786,0 0,-5.48828 -16.05957,0 0,-7.77832 13.31542,0 -1.37206,-5.49316 -11.94336,0 0,-7.77344 16.05957,0 0,-5.49316 -21.54786,0 z"
           style="clip-rule:nonzero;fill:#3f5eab;fill-opacity:1;fill-rule:nonzero;stroke:none"
           inkscape:connector-curvature="0" />
        <path
           id="path4310"
           d="m 298.34407,337.07087 c 0.56152,-0.88379 1.00586,-1.85059 1.32812,-2.90039 0.31739,-1.05469 0.47853,-2.15821 0.47853,-3.32032 0,-1.58203 -0.30763,-3.07129 -0.91798,-4.46289 -0.61035,-1.38183 -1.43066,-2.59765 -2.4707,-3.63281 -1.03516,-1.03516 -2.2461,-1.86035 -3.6377,-2.4707 -1.38671,-0.61036 -2.87109,-0.91797 -4.458,-0.91797 l -11.98731,0 0,32.02636 5.48829,0 0,-26.5332 6.49902,0 c 1.6455,0 3.0664,0.59082 4.25293,1.78223 0.55176,0.55176 0.97656,1.1914 1.28417,1.92383 0.30274,0.72754 0.4541,1.49414 0.4541,2.28515 0,0.7959 -0.15136,1.55762 -0.4541,2.29004 -0.30761,0.72754 -0.73241,1.38672 -1.28417,1.96778 -1.18653,1.18652 -2.60743,1.78222 -4.25293,1.78222 l -2.37794,0 -2.24121,5.48828 3.75,0 5.81055,9.01367 6.54298,0 -6.54298,-10.15625 c 0.97656,-0.4541 1.86524,-1.04492 2.67579,-1.75781 0.81054,-0.71777 1.49414,-1.51855 2.06054,-2.40722"
           style="clip-rule:nonzero;fill:#3f5eab;fill-opacity:1;fill-rule:nonzero;stroke:none"
           inkscape:connector-curvature="0" />
        <path
           id="path4312"
           d="m 314.83333,343.75055 -9.7461,-24.38476 -5.94726,0 12.8125,32.02636 5.90332,0 11.89453,-32.02636 -5.85449,0 z"
           style="clip-rule:nonzero;fill:#3f5eab;fill-opacity:1;fill-rule:nonzero;stroke:none"
           inkscape:connector-curvature="0" />
        <path
           id="path4314"
           d="m 332.03548,351.39704 5.49316,0 0,-31.98242 -5.49316,0 z"
           style="clip-rule:nonzero;fill:#3f5eab;fill-opacity:1;fill-rule:nonzero;stroke:none"
           inkscape:connector-curvature="0" />
        <path
           id="path4316"
           d="m 349.05697,327.46637 c 1.06932,-1.06933 2.2705,-1.88476 3.61816,-2.45117 1.33789,-0.56152 2.75879,-0.84472 4.25292,-0.84472 1.52344,0 2.95899,0.2832 4.29688,0.84472 1.34766,0.56641 2.54882,1.38184 3.61816,2.45117 l 3.88673,-3.88672 c -1.52344,-1.52832 -3.29103,-2.7246 -5.30763,-3.59375 -2.01171,-0.86914 -4.17969,-1.30371 -6.49414,-1.30371 -2.29003,0 -4.44823,0.43457 -6.47461,1.30371 -2.03125,0.86915 -3.79882,2.05567 -5.30761,3.56934 -1.50879,1.50879 -2.7002,3.27637 -3.56934,5.30274 -0.86914,2.03125 -1.30371,4.18945 -1.30371,6.47949 0,2.28515 0.43457,4.44336 1.30371,6.47461 0.86914,2.02636 2.06055,3.79394 3.56934,5.30273 1.50879,1.51367 3.27636,2.7002 5.30761,3.56934 2.02638,0.86914 4.18458,1.30371 6.47461,1.30371 2.31445,0 4.48243,-0.43457 6.49414,-1.30371 2.0166,-0.86914 3.78419,-2.06543 5.30763,-3.59375 l -3.88673,-3.83789 c -1.06934,1.06445 -2.2705,1.875 -3.61816,2.42187 -1.33789,0.55176 -2.77344,0.8252 -4.29688,0.8252 -1.49413,0 -2.91503,-0.27344 -4.25292,-0.8252 -1.34766,-0.54687 -2.54884,-1.35742 -3.61816,-2.42187 -1.06447,-1.06934 -1.88478,-2.28028 -2.4463,-3.6377 -0.5664,-1.35742 -0.8496,-2.78808 -0.8496,-4.27734 0,-1.49414 0.2832,-2.91504 0.8496,-4.25782 0.56152,-1.34277 1.38183,-2.54394 2.4463,-3.61328"
           style="clip-rule:nonzero;fill:#3f5eab;fill-opacity:1;fill-rule:nonzero;stroke:none"
           inkscape:connector-curvature="0" />
        <path
           id="path4318"
           d="m 370.79035,351.39215 21.54787,0 0,-5.48828 -16.05958,0 0,-7.77832 13.31543,0 -1.37207,-5.49316 -11.94336,0 0,-7.77344 16.05958,0 0,-5.49316 -21.54787,0 z"
           style="clip-rule:nonzero;fill:#3f5eab;fill-opacity:1;fill-rule:nonzero;stroke:none"
           inkscape:connector-curvature="0" />
        <path
           id="path4320"
           d="m 413.43197,335.33258 c -0.67384,-0.4541 -1.35255,-0.8496 -2.03614,-1.18652 -0.68848,-0.33691 -1.32324,-0.625 -1.89941,-0.86914 -0.58107,-0.24414 -1.08399,-0.4248 -1.50879,-0.55176 -0.42969,-0.12207 -0.71778,-0.20996 -0.86915,-0.27343 l -0.55175,-0.13672 c -0.54688,-0.15137 -1.14258,-0.32227 -1.78223,-0.50293 -0.64453,-0.18555 -1.25488,-0.42481 -1.83106,-0.73243 -0.70312,-0.36621 -1.25,-0.77636 -1.6455,-1.23535 -0.55176,-0.57617 -0.8252,-1.27929 -0.8252,-2.10449 0,-1.34277 0.66895,-2.42676 2.01173,-3.24707 0.45897,-0.24414 0.9912,-0.43945 1.60156,-0.5957 0.61035,-0.15137 1.2207,-0.22949 1.83105,-0.22949 1.40136,0 2.74414,0.30273 4.02832,0.91308 0.8496,0.42969 1.68945,1.05469 2.51464,1.87988 l 3.89161,-3.93554 c -0.24902,-0.21485 -0.52735,-0.44922 -0.84961,-0.70801 -0.32226,-0.25879 -0.70801,-0.52734 -1.167,-0.80566 -0.88379,-0.5127 -2.07519,-1.03516 -3.56932,-1.55274 -1.49415,-0.51758 -3.33985,-0.77637 -5.53712,-0.77637 -1.18652,0 -2.40235,0.16602 -3.6377,0.50293 -1.23046,0.33692 -2.35351,0.88868 -3.35937,1.66993 -1.00586,0.77636 -1.82129,1.7871 -2.44629,3.01757 -0.625,1.23536 -0.9375,2.75391 -0.9375,4.55567 0,2.71484 1.38673,5 4.16016,6.86035 1.1914,0.7959 2.38769,1.4209 3.59375,1.875 1.20605,0.45898 2.1289,0.78125 2.76855,0.96191 0.11713,0.0586 0.20997,0.0928 0.27344,0.0928 0.0928,0.0586 0.2002,0.0977 0.31739,0.1123 0.122,0.0147 0.25879,0.0537 0.41504,0.1123 0.48827,0.15625 1.03515,0.32226 1.6455,0.50781 0.61035,0.18067 1.19141,0.42481 1.73828,0.73242 0.66894,0.30274 1.2207,0.69825 1.65039,1.18653 0.54688,0.61035 0.82031,1.29883 0.82031,2.06054 0,1.25 -0.51757,2.25586 -1.55273,3.01758 -0.49317,0.33692 -1.06445,0.60547 -1.71875,0.80567 -0.65429,0.19531 -1.38184,0.29296 -2.17285,0.29296 -0.4248,0 -0.97657,-0.0439 -1.6455,-0.13671 -0.67384,-0.0879 -1.38673,-0.28809 -2.15333,-0.59571 -1.25,-0.4834 -2.37792,-1.1914 -3.38379,-2.10449 l -3.79882,3.79883 c 1.28417,1.04004 2.91504,1.95801 4.89745,2.76855 1.98242,0.80567 4.23829,1.21094 6.77246,1.21094 1.58204,0 3.01759,-0.22461 4.30176,-0.68848 1.2793,-0.4541 2.36817,-1.10351 3.2666,-1.93847 0.90333,-0.83985 1.59668,-1.86524 2.08497,-3.06641 0.4834,-1.20605 0.73242,-2.55371 0.73242,-4.05273 0,-2.65137 -1.48437,-4.95606 -4.43847,-6.90918"
           style="clip-rule:nonzero;fill:#3f5eab;fill-opacity:1;fill-rule:nonzero;stroke:none"
           inkscape:connector-curvature="0" />
      </g>
      <g
         inkscape:label="Layer 1"
         id="layer1-7"
         transform="matrix(0.15855989,0,0,0.15855989,4.9141163,266.69771)">
        <path
           style="fill:#4061ad;fill-opacity:1"
           d="m 336.59558,555.57254 c -2.97181,-1.34865 -6.90931,-3.50567 -8.75,-4.7934 -2.69739,-1.88707 -6.62068,-2.49311 -20.22169,-3.12371 -26.54115,-1.23056 -57.43297,-8.6095 -81.78485,-19.53545 l -8.55662,-3.8391 -9.7323,2.09136 c -23.65384,5.08297 -39.16503,-5.91492 -43.71265,-30.99356 -1.37369,-7.57548 -1.88952,-8.3779 -12.31988,-19.16532 -19.75905,-20.43546 -38.41298,-48.09044 -47.8409,-70.92548 l -4.158845,-10.07299 -11.56348,-5.62798 c -20.21863,-9.8405 -27.35859,-18.65416 -26.35472,-32.53257 0.6932,-9.58342 4.58735,-17.11851 14.22855,-27.5319 l 8.04569,-8.69007 0,-12.05069 c 0,-44.84781 13.91979,-90.78738 39.199385,-129.36985 7.47355,-11.40638 7.9406,-12.5608 8.65076,-21.38233 1.89393,-23.52643 12.44399,-38.71837 28.37161,-40.85471 3.99584,-0.53596 5.46585,-1.50549 7.49363,-4.94229 2.4199,-4.10142 8.81518,-7.90297 13.29506,-7.90297 1.1499,0 4.42635,1.16646 7.281,2.59215 l 5.19027,2.59214 9.94664,-5.92272 c 9.79384,-5.831711 36.05076,-17.977721 38.91221,-18.000101 0.80605,-0.006 2.08469,-1.88744 2.84139,-4.18029 0.75671,-2.29285 3.08728,-5.80847 5.17903,-7.8125 5.19615,-4.97823 13.7404,-5.14293 19.98632,-0.38526 4.27414,3.2557 4.28551,3.25699 13.6527,1.5417 5.15625,-0.94419 18.375,-2.06149 29.375,-2.48289 27.92085,-1.0696 49.89113,1.56049 75.97663,9.09528 l 10.97664,3.1706 10.84911,-3.92567 c 31.61201,-11.43856 50.09715,-1.4306 52.39497,28.366961 l 0.75229,9.75544 5.71485,4.36008 c 9.45095,7.21049 28.61409,26.05828 36.7473,36.14259 10.18936,12.63374 21.27542,29.59298 27.84219,42.59249 3.92227,7.76449 6.48942,11.27928 9.53538,13.05521 19.26883,11.23464 25.92803,29.82963 17.25102,48.17136 -3.76742,7.9637 -3.80995,8.27024 -2.49902,18.01127 1.9406,14.4198 1.63225,46.03529 -0.60548,62.07913 -5.93887,42.57982 -24.24639,84.3247 -51.7339,117.96382 -4.0083,4.90533 -13.44715,14.82091 -20.9752,22.03459 l -13.68738,13.11578 -0.79212,10.27202 c -1.32865,17.2296 -8.56015,28.93972 -20.25499,32.79936 -7.34564,2.42429 -20.91919,0.97112 -32.19754,-3.447 l -9.70523,-3.80188 -6.54477,2.51918 c -3.59962,1.38553 -13.75377,4.3463 -22.56478,6.57945 -15.2069,3.8542 -16.17629,4.29022 -19.09835,8.59043 -5.6781,8.35607 -13.98545,10.36087 -24.03493,5.80029 z m 16.0283,-6.86801 c 1.32204,-1.59296 1.01603,-1.87292 -2.03445,-1.86124 -6.74814,0.0259 -13.2666,1.5259 -11.49939,2.64629 2.79724,1.77339 11.84614,1.2485 13.53384,-0.78505 z m -11.99271,-15.70629 c 39.96541,-3.50582 80.27387,-18.22696 111.85506,-40.85084 l 11.73735,-8.40829 -0.74047,-16.26729 c -1.15949,-25.47236 -6.05904,-51.35563 -14.69257,-77.61745 l -3.73133,-11.35015 -6.83289,0.56662 c -5.63318,0.46715 -7.9894,-0.0185 -13.41964,-2.76595 l -6.58675,-3.33258 -13.66541,6.44596 c -17.01895,8.02781 -43.61111,18.42233 -60.05564,23.47496 -24.79599,7.61865 -66.39983,16.4363 -77.55044,16.4363 -2.29735,0 -4.4445,0.4328 -4.77142,0.96179 -0.79505,1.28641 11.32698,30.89992 20.49257,50.06233 14.96989,31.29743 35.61029,63.98588 40.38801,63.96298 1.4802,-0.007 9.38831,-0.60036 17.57357,-1.31839 z m 112.42585,-2.12551 c 5.69467,-3.31696 9.74596,-11.43802 10.52067,-21.08935 l 0.64882,-8.08279 -10.25435,6.86364 c -5.63989,3.77499 -15.9314,9.77972 -22.87004,13.34386 -13.93511,7.15798 -13.96111,7.3547 -1.39039,10.5177 8.73534,2.19795 17.95889,1.58435 23.34529,-1.55306 z m -147.1741,-5.6057 c -13.86964,-20.03916 -31.30973,-53.83365 -44.34918,-85.9375 l -7.36172,-18.125 -16.08657,0.44848 c -8.84761,0.24664 -24.70462,-0.24229 -35.23781,-1.08655 -19.91815,-1.59648 -19.9515,-1.59254 -28.82587,3.40686 -1.01419,0.57135 -3.7878,30.2648 -3.7696,40.35621 l 0.0191,10.625 8.05699,6.70634 c 24.12749,20.08282 56.48035,36.94786 85.54557,44.59355 12.55767,3.30334 32.36299,6.60966 40.27064,6.72284 l 7.14564,0.10224 -5.40725,-7.8125 z m -100.21824,-5.80125 c 0.37859,-0.61255 -3.26028,-3.45956 -8.08635,-6.32667 -4.82608,-2.86713 -12.33843,-7.91034 -16.69413,-11.20717 -11.17306,-8.45686 -10.75775,-8.32569 -9.27341,-2.92877 4.13795,15.04525 11.92253,21.42887 26.25183,21.52743 3.91255,0.0269 7.42348,-0.45226 7.80206,-1.06482 z m 298.53299,-78.9826 c 10.182,-14.19495 25.64155,-44.82653 30.86381,-61.15365 8.24222,-25.76889 12.64622,-60.55465 10.49829,-82.92255 l -1.06088,-11.04755 -9.52506,8.6896 c -17.91395,16.34269 -53.78456,43.35399 -68.7233,51.75002 -4.5009,2.52964 -4.87665,3.15961 -4.87665,8.1758 0,6.46948 -2.14379,12.02413 -6.74792,17.48422 l -3.37677,4.00453 3.90267,11.62047 c 7.92247,23.58981 13.57411,52.08636 15.6878,79.10076 l 0.8787,11.23029 12.01526,-12.57664 c 6.60839,-6.91715 15.81722,-17.87704 20.46405,-24.3553 z m -339.07768,-2.46928 1.49764,-14.44063 -4.7495,-4.7495 c -4.14175,-4.14175 -6.67663,-5.27967 -19.80937,-8.89248 -8.28293,-2.27863 -16.68476,-4.76818 -18.67073,-5.53233 -1.98597,-0.76415 -3.88012,-1.12012 -4.20922,-0.79102 -0.8593,0.8593 10.21471,20.99768 17.41741,31.67403 3.36821,4.99259 10.46171,14.24813 15.76334,20.56787 l 9.63933,11.49045 0.81173,-7.44289 c 0.44645,-4.09357 1.48567,-13.94116 2.30937,-21.8835 z m 86.2539,-24.52058 c 0,-0.45992 -2.58869,-8.75679 -5.75264,-18.4375 -11.1115,-33.9977 -19.59335,-71.79489 -23.99222,-106.91509 l -2.26253,-18.0638 -5.39015,12.2904 c -12.98327,29.60394 -24.02522,63.16047 -32.02898,97.3362 l -3.45413,14.749 2.69746,1.88939 c 3.40597,2.38562 6.43319,8.16261 6.43319,12.27672 0,3.40186 1.42678,4.05383 10.625,4.85508 9.5735,0.83395 53.125,0.85002 53.125,0.0196 z m 41.25,-4.93192 c 32.34054,-5.86712 66.99747,-16.7034 99.99999,-31.26725 23.28453,-10.27533 21.90158,-9.29708 20.16908,-14.26692 -3.33538,-9.56785 -0.28702,-21.4708 7.08795,-27.67644 l 3.86277,-3.25031 -7.28591,-12.32298 C 389.50104,274.18445 344.88534,226.50984 293.24889,188.12127 l -13.75,-10.22229 -3.5528,4.15277 c -9.54001,11.15109 -27.53365,36.43993 -36.08467,50.71459 -9.14602,15.26791 -9.51817,16.1901 -8.84904,21.92828 0.591,5.0682 0.2636,6.45301 -2.12736,8.99807 l -2.82587,3.00799 2.1188,17.87692 c 2.86539,24.17622 7.13548,46.79408 13.7037,72.58605 4.78468,18.7884 14.83427,52.01608 16.66707,55.10756 0.8371,1.41197 13.35588,0.049 34.07517,-3.70981 z m -133.9632,-5.98795 c 1.59613,-4.41401 5.32464,-7.59572 10.3955,-8.871 2.60551,-0.65524 3.2756,-2.26541 5.848,-14.05227 6.93348,-31.76949 19.6744,-70.51145 32.25823,-98.08924 7.2485,-15.88527 7.36598,-16.34249 5.98011,-23.27409 -0.63791,-3.19065 -0.21031,-5.01027 1.82405,-7.76188 2.40862,-3.25785 2.65731,-5.21329 2.65731,-20.89495 0,-20.07887 1.8315,-45.59947 4.55178,-63.42549 1.04912,-6.875 2.20081,-14.49814 2.5593,-16.9403 l 0.65178,-4.4403 -15.17103,-7.1222 c -8.34407,-3.91721 -15.81937,-7.1222 -16.61178,-7.1222 -6.05152,0 -23.50454,13.71452 -37.50095,29.46814 -27.55888,31.01879 -44.69649,65.07035 -53.49377,106.28936 -3.424595,16.04562 -4.760965,53.48485 -2.54475,71.29261 1.71492,13.77977 8.54165,41.78498 12.3251,50.5611 2.23988,5.19567 3.16255,5.98589 9.79112,8.38573 8.905,3.22401 27.14214,8.60554 34.25459,10.10806 0.37751,0.0797 1.37895,-1.77024 2.22541,-4.11107 z M 94.518835,380.63608 c -2.70321,-7.66173 -7.94882,-32.23768 -8.89989,-41.69644 l -0.85616,-8.51489 -4.87649,4.76178 c -5.68229,5.54861 -12.26241,17.96187 -12.26241,23.1328 0,8.8114 6.68141,16.853 19.375,23.31933 4.125,2.10135 7.89692,3.84768 8.38205,3.88075 0.48513,0.0331 0.0972,-2.16443 -0.8621,-4.88333 z M 477.39007,330.27837 c 20.28671,-13.69675 43.36624,-31.90233 56.77596,-44.78595 l 9.66712,-9.28789 -2.49231,-11.77431 c -9.99907,-47.23817 -35.53722,-91.11278 -71.19896,-122.32005 -20.25124,-17.7217 -49.44037,-35.01208 -72.16977,-42.750281 l -8.67012,-2.95172 -10.52655,5.131431 c -5.78961,2.82229 -16.2406,8.52763 -23.22442,12.67853 l -12.69788,7.5471 0.61795,4.71965 c 0.85324,6.51672 -3.50037,12.84137 -10.52378,15.2883 -4.66912,1.6267 -5.67341,1.60247 -9.51508,-0.22949 l -4.295,-2.04814 -12.31918,11.01332 c -15.39288,13.76123 -22.10983,20.73255 -21.52387,22.33896 0.25009,0.68562 6.71482,5.94012 14.36609,11.67665 32.24336,24.17446 68.51644,58.75226 90.9298,86.68005 9.96545,12.41728 31.90351,44.31134 37.28817,54.21043 1.92455,3.53805 2.70605,3.91721 8.125,3.94202 7.55949,0.0346 15.53298,3.60264 19.23224,8.60615 1.5722,2.12652 3.35068,3.8664 3.95216,3.8664 0.60148,0 8.79258,-5.19803 18.20243,-11.55116 z M 558.45662,249.543 c 0.53201,-4.49203 0.0861,-7.47663 -1.73072,-11.58382 -2.1894,-4.94951 -10.01948,-14.37884 -11.0688,-13.32953 -0.22676,0.22677 1.23372,5.73638 3.24552,12.24359 2.01181,6.50722 4.28766,14.33844 5.05745,17.40273 1.13355,4.51226 1.62588,5.16713 2.58976,3.44478 0.65456,-1.16965 1.51262,-4.84963 1.90679,-8.17775 z M 242.80969,215.7384 c 6.63344,-10.05613 16.05531,-23.22941 20.9375,-29.27397 4.88219,-6.04455 8.8767,-11.49692 8.8767,-12.1164 0,-1.55675 -37.89925,-25.0185 -40.41399,-25.0185 -0.75068,0 -4.29681,24.26615 -5.81907,39.81994 -0.69681,7.11972 -1.24204,22.30722 -1.2116,33.75 l 0.0554,20.80506 2.75718,-4.84113 c 1.51644,-2.66262 8.18452,-13.06887 14.81796,-23.125 z m 71.21655,-87.54643 c -0.2362,-4.45019 0.34919,-6.6629 2.47909,-9.37063 5.21259,-6.62672 13.80938,-8.22991 20.30693,-3.78696 1.99782,1.36609 3.44712,0.84969 10.625,-3.7858 4.5714,-2.95222 13.57693,-8.18804 20.01231,-11.635151 l 11.70069,-6.26748 -6.70069,-1.44898 c -24.72373,-5.34642 -59.62112,-6.68495 -82.88189,-3.17905 -15.1006,2.27599 -41.53235,9.12875 -43.74504,11.341441 -2.03771,2.03771 -12.4001,38.79098 -11.55664,40.98901 0.34559,0.9006 6.16437,4.7965 12.93062,8.65755 6.76625,3.86105 16.47946,9.82475 21.58491,13.25269 l 9.28264,6.2326 18.13563,-17.58669 18.13565,-17.58668 -0.30921,-5.82587 z m -147.28927,-2.60906 c -0.74843,-2.86197 -1.67022,-2.99425 -8.20974,-1.17822 -9.75763,2.70972 -17.04176,12.87726 -19.07954,26.63217 l -0.90109,6.08232 14.4225,-14.51645 c 11.11677,-11.18917 14.27245,-15.09024 13.76787,-17.01982 z M 231.76,120.99736 c 2.5389,-9.39521 4.44552,-17.25288 4.2369,-17.46149 -0.56195,-0.56195 -25.53295,12.19314 -32.62837,16.66645 l -6.13038,3.86488 14.25538,6.89573 c 7.84045,3.79265 14.56921,6.94543 14.95282,7.00616 0.3836,0.0607 2.77474,-7.57653 5.31365,-16.97173 z m 224.28098,-15.41832 c -0.87342,-9.632271 -5.41041,-17.631051 -11.69097,-20.611381 -5.74552,-2.72642 -20.91557,-2.08993 -28.95379,1.21482 l -5.35268,2.20064 9.67788,4.20713 c 9.59112,4.16943 26.88495,13.689791 32.90246,18.113021 1.71875,1.26339 3.34375,2.31489 3.61111,2.33666 0.26737,0.0217 0.18005,-3.33562 -0.19401,-7.46089 z M 260.66013,79.888709 c 2.45506,-0.46057 4.46376,-1.33731 4.46376,-1.94829 0,-1.52955 -7.1238,-1.40018 -10.08217,0.18309 -2.77743,1.48643 -3.32179,4.32038 -0.63159,3.28805 0.98242,-0.37699 3.79492,-1.06228 6.25,-1.52285 z"
           id="path4147"
           inkscape:connector-curvature="0"
           inkscape:export-filename="C:\Users\IBME6560\Desktop\logo-dataservices\logo_16.png"
           inkscape:export-xdpi="2.9495754"
           inkscape:export-ydpi="2.9495754" />
      </g>
    </g>
  </g>
  <style
     id="style4137"
     type="text/css">
	.st0{fill:none;}
	.st1{fill:#4061AC;}
	.st2{fill:#BDDDF4;}
	.st3{fill:#F38EB0;}
	.st4{fill:#FFC00E;}
	.st5{fill:#9BD9E5;}
	.st6{fill:#AFD136;}
	.st7{fill:#3B3B3B;}
</style>
</svg>
